<mxfile host="app.diagrams.net" modified="2021-10-10T17:04:29.855Z" agent="5.0 (Windows NT 10.0; Win64; x64) AppleWebKit/537.36 (KHTML, like Gecko) Chrome/94.0.4606.71 Safari/537.36" etag="O16wjT5tHwMEczjiIfWn" version="15.5.0" type="github">
  <diagram id="XiAfjomic9EndtzY3kY0" name="Page-1">
    <mxGraphModel dx="2062" dy="1065" grid="1" gridSize="10" guides="1" tooltips="1" connect="1" arrows="1" fold="1" page="1" pageScale="1" pageWidth="827" pageHeight="1169" math="0" shadow="0">
      <root>
        <mxCell id="0" />
        <mxCell id="1" parent="0" />
        <mxCell id="Z1SwagcqaUTe0x45ULMl-6" style="edgeStyle=orthogonalEdgeStyle;rounded=0;orthogonalLoop=1;jettySize=auto;html=1;entryX=0.5;entryY=0;entryDx=0;entryDy=0;" parent="1" source="Z1SwagcqaUTe0x45ULMl-1" target="Z1SwagcqaUTe0x45ULMl-3" edge="1">
          <mxGeometry relative="1" as="geometry" />
        </mxCell>
        <mxCell id="Z1SwagcqaUTe0x45ULMl-1" value="Sell ZIL / DAI / LTC to USDT" style="rounded=1;whiteSpace=wrap;html=1;" parent="1" vertex="1">
          <mxGeometry x="170" y="190" width="120" height="60" as="geometry" />
        </mxCell>
        <mxCell id="Z1SwagcqaUTe0x45ULMl-5" value="Send" style="edgeStyle=orthogonalEdgeStyle;rounded=0;orthogonalLoop=1;jettySize=auto;html=1;exitX=0.5;exitY=1;exitDx=0;exitDy=0;entryX=0.5;entryY=0;entryDx=0;entryDy=0;" parent="1" source="Z1SwagcqaUTe0x45ULMl-2" target="Z1SwagcqaUTe0x45ULMl-1" edge="1">
          <mxGeometry relative="1" as="geometry">
            <mxPoint x="230" y="120" as="targetPoint" />
          </mxGeometry>
        </mxCell>
        <mxCell id="Z1SwagcqaUTe0x45ULMl-2" value="Buy DAI / LTC" style="rounded=1;whiteSpace=wrap;html=1;" parent="1" vertex="1">
          <mxGeometry x="170" y="50" width="120" height="60" as="geometry" />
        </mxCell>
        <mxCell id="Z1SwagcqaUTe0x45ULMl-8" value="Withdraw" style="edgeStyle=orthogonalEdgeStyle;rounded=0;orthogonalLoop=1;jettySize=auto;html=1;" parent="1" source="Z1SwagcqaUTe0x45ULMl-3" target="Z1SwagcqaUTe0x45ULMl-4" edge="1">
          <mxGeometry relative="1" as="geometry" />
        </mxCell>
        <mxCell id="Z1SwagcqaUTe0x45ULMl-3" value="Sell USDT to UST" style="rounded=1;whiteSpace=wrap;html=1;" parent="1" vertex="1">
          <mxGeometry x="170" y="290" width="120" height="60" as="geometry" />
        </mxCell>
        <mxCell id="Z1SwagcqaUTe0x45ULMl-4" value="Terra Station Wallet" style="rounded=1;whiteSpace=wrap;html=1;" parent="1" vertex="1">
          <mxGeometry x="170" y="410" width="120" height="60" as="geometry" />
        </mxCell>
        <mxCell id="Z1SwagcqaUTe0x45ULMl-9" value="Gemini" style="rounded=0;whiteSpace=wrap;html=1;fillColor=#fff2cc;strokeColor=#d6b656;" parent="1" vertex="1">
          <mxGeometry x="40" y="70" width="120" height="20" as="geometry" />
        </mxCell>
        <mxCell id="Z1SwagcqaUTe0x45ULMl-10" value="&lt;ul&gt;&lt;li&gt;&lt;span&gt;Deposit anytime of the day&lt;/span&gt;&lt;/li&gt;&lt;li&gt;&lt;span&gt;DAI no price risk&lt;/span&gt;&lt;/li&gt;&lt;li&gt;&lt;span&gt;Commission 1-2% but $0 withdrawal fee&lt;/span&gt;&lt;/li&gt;&lt;/ul&gt;" style="text;html=1;strokeColor=none;fillColor=none;align=left;verticalAlign=top;whiteSpace=wrap;rounded=0;" parent="1" vertex="1">
          <mxGeometry x="300" y="40" width="270" height="80" as="geometry" />
        </mxCell>
        <mxCell id="Z1SwagcqaUTe0x45ULMl-11" value="Kucoin / Bittrix" style="rounded=0;whiteSpace=wrap;html=1;fillColor=#fff2cc;strokeColor=#d6b656;" parent="1" vertex="1">
          <mxGeometry x="40" y="210" width="120" height="20" as="geometry" />
        </mxCell>
        <mxCell id="Z1SwagcqaUTe0x45ULMl-12" value="How to buy UST from Gemini" style="rounded=0;whiteSpace=wrap;html=1;fillColor=#fff2cc;strokeColor=#d6b656;" parent="1" vertex="1">
          <mxGeometry x="40" y="20" width="280" height="20" as="geometry" />
        </mxCell>
      </root>
    </mxGraphModel>
  </diagram>
</mxfile>
